<svg xmlns="http://www.w3.org/2000/svg" viewBox="0 0 512 512" width="512" height="512" role="img" aria-label="ATLAS">
  <defs>
    
    <linearGradient id="p-plate" x1="0" y1="0" x2="0.6" y2="1">
      <stop offset="0" stop-color="#111a2f"/>
      <stop offset="0.55" stop-color="#0b1222"/>
      <stop offset="1" stop-color="#070c18"/>
    </linearGradient>
    <linearGradient id="p-sheen" x1="0" y1="0" x2="0.7" y2="1">
      <stop offset="0" stop-color="#ffffff" stop-opacity="0.55"/>
      <stop offset="1" stop-color="#ffffff" stop-opacity="0"/>
    </linearGradient>
    <linearGradient id="p-shade" x1="0" y1="0" x2="1" y2="0.2">
      <stop offset="0" stop-color="#04070f" stop-opacity="0.66"/>
      <stop offset="1" stop-color="#04070f" stop-opacity="0.22"/>
    </linearGradient>

    <linearGradient id="at-grad" x1="0.05" y1="0.1" x2="0.95" y2="0.9">
      <stop offset="0" stop-color="#e6f7ff"/><stop offset="0.45" stop-color="#40a9ff"/><stop offset="1" stop-color="#096dd9"/>
    </linearGradient>
    <linearGradient id="at-glow" x1="0" y1="0" x2="1" y2="1">
      <stop offset="0" stop-color="#91d5ff"/><stop offset="1" stop-color="#1890ff"/>
    </linearGradient>
  </defs>
  <rect x="0" y="0" width="512" height="512" rx="114" ry="114" fill="url(#p-plate)"/>
  <g transform="translate(256 256) scale(0.72) translate(-256 -256)">
    <polygon points="256,80 395,160 395,320 256,400 117,320 117,160" fill="none" stroke="url(#at-grad)" stroke-width="12" stroke-linejoin="round"/>
    
    <line x1="256" y1="80" x2="256" y2="400" stroke="url(#at-grad)" stroke-width="8"/>
    <line x1="117" y1="160" x2="395" y2="320" stroke="url(#at-grad)" stroke-width="8"/>
    <line x1="117" y1="320" x2="395" y2="160" stroke="url(#at-grad)" stroke-width="8"/>

    <polygon points="256,150 335,195 335,285 256,330 177,285 177,195" fill="#0d1b33" stroke="url(#at-glow)" stroke-width="6"/>

    <circle cx="256" cy="240" r="32" fill="url(#at-glow)" stroke="#0b1222" stroke-width="6"/>
    <ellipse cx="246" cy="230" rx="14" ry="8" fill="url(#p-sheen)"/>

    <circle cx="256" cy="80" r="14" fill="url(#at-grad)"/>
    <circle cx="395" cy="160" r="14" fill="url(#at-grad)"/>
    <circle cx="395" cy="320" r="14" fill="url(#at-grad)"/>
    <circle cx="256" cy="400" r="14" fill="url(#at-grad)"/>
    <circle cx="117" cy="320" r="14" fill="url(#at-grad)"/>
    <circle cx="117" cy="160" r="14" fill="url(#at-grad)"/>
  </g>
</svg>